<svg width="64" height="64" viewBox="0 0 64 64" fill="none" xmlns="http://www.w3.org/2000/svg">
<rect x="1" y="1" width="62" height="62" stroke="#CA8A04" stroke-width="2"/>
<path d="M18.6666 50.3333V47H45.3333V50.3333H18.6666ZM18.6666 17V13.6666H45.3333V17H18.6666ZM31.9999 33.6666C33.3888 33.6666 34.5694 33.1805 35.5416 32.2083C36.5138 31.2361 36.9999 30.0555 36.9999 28.6666C36.9999 27.2777 36.5138 26.0972 35.5416 25.125C34.5694 24.1527 33.3888 23.6666 31.9999 23.6666C30.611 23.6666 29.4305 24.1527 28.4583 25.125C27.486 26.0972 26.9999 27.2777 26.9999 28.6666C26.9999 30.0555 27.486 31.2361 28.4583 32.2083C29.4305 33.1805 30.611 33.6666 31.9999 33.6666ZM18.6666 45.3333C17.7499 45.3333 16.9652 45.0069 16.3124 44.3541C15.6596 43.7013 15.3333 42.9166 15.3333 42V22C15.3333 21.0833 15.6596 20.2986 16.3124 19.6458C16.9652 18.993 17.7499 18.6666 18.6666 18.6666H45.3333C46.2499 18.6666 47.0346 18.993 47.6874 19.6458C48.3402 20.2986 48.6666 21.0833 48.6666 22V42C48.6666 42.9166 48.3402 43.7013 47.6874 44.3541C47.0346 45.0069 46.2499 45.3333 45.3333 45.3333H18.6666ZM21.5833 42C22.8333 40.4444 24.3471 39.2222 26.1249 38.3333C27.9027 37.4444 29.861 37 31.9999 37C34.1388 37 36.0971 37.4444 37.8749 38.3333C39.6527 39.2222 41.1666 40.4444 42.4166 42H45.3333V22H18.6666V42H21.5833ZM26.4999 42H37.4999C36.6944 41.4444 35.8263 41.0277 34.8958 40.75C33.9652 40.4722 32.9999 40.3333 31.9999 40.3333C30.9999 40.3333 30.0346 40.4722 29.1041 40.75C28.1735 41.0277 27.3055 41.4444 26.4999 42ZM31.9999 30.3333C31.5277 30.3333 31.1319 30.1736 30.8124 29.8541C30.493 29.5347 30.3333 29.1388 30.3333 28.6666C30.3333 28.1944 30.493 27.7986 30.8124 27.4791C31.1319 27.1597 31.5277 27 31.9999 27C32.4721 27 32.868 27.1597 33.1874 27.4791C33.5069 27.7986 33.6666 28.1944 33.6666 28.6666C33.6666 29.1388 33.5069 29.5347 33.1874 29.8541C32.868 30.1736 32.4721 30.3333 31.9999 30.3333Z" fill="#CA8A04"/>
</svg>
