<svg width="64" height="64" viewBox="0 0 64 64" fill="none" xmlns="http://www.w3.org/2000/svg">
<rect x="1" y="1" width="62" height="62" stroke="#CA8A04" stroke-width="2"/>
<path d="M42 48.6667C40.6111 48.6667 39.4306 48.1806 38.4583 47.2084C37.4861 46.2362 37 45.0556 37 43.6667C37 43.4723 37.0139 43.2709 37.0417 43.0625C37.0694 42.8542 37.1111 42.6667 37.1667 42.5L25.4167 35.6667C24.9444 36.0834 24.4167 36.4098 23.8333 36.6459C23.25 36.882 22.6389 37 22 37C20.6111 37 19.4306 36.5139 18.4583 35.5417C17.4861 34.5695 17 33.3889 17 32C17 30.6112 17.4861 29.4306 18.4583 28.4584C19.4306 27.4862 20.6111 27 22 27C22.6389 27 23.25 27.1181 23.8333 27.3542C24.4167 27.5903 24.9444 27.9167 25.4167 28.3334L37.1667 21.5C37.1111 21.3334 37.0694 21.1459 37.0417 20.9375C37.0139 20.7292 37 20.5278 37 20.3334C37 18.9445 37.4861 17.7639 38.4583 16.7917C39.4306 15.8195 40.6111 15.3334 42 15.3334C43.3889 15.3334 44.5694 15.8195 45.5417 16.7917C46.5139 17.7639 47 18.9445 47 20.3334C47 21.7223 46.5139 22.9028 45.5417 23.875C44.5694 24.8473 43.3889 25.3334 42 25.3334C41.3611 25.3334 40.75 25.2153 40.1667 24.9792C39.5833 24.7431 39.0556 24.4167 38.5833 24L26.8333 30.8334C26.8889 31 26.9306 31.1875 26.9583 31.3959C26.9861 31.6042 27 31.8056 27 32C27 32.1945 26.9861 32.3959 26.9583 32.6042C26.9306 32.8125 26.8889 33 26.8333 33.1667L38.5833 40C39.0556 39.5834 39.5833 39.257 40.1667 39.0209C40.75 38.7848 41.3611 38.6667 42 38.6667C43.3889 38.6667 44.5694 39.1528 45.5417 40.125C46.5139 41.0973 47 42.2778 47 43.6667C47 45.0556 46.5139 46.2362 45.5417 47.2084C44.5694 48.1806 43.3889 48.6667 42 48.6667ZM42 22C42.4722 22 42.8681 21.8403 43.1875 21.5209C43.5069 21.2014 43.6667 20.8056 43.6667 20.3334C43.6667 19.8612 43.5069 19.4653 43.1875 19.1459C42.8681 18.8264 42.4722 18.6667 42 18.6667C41.5278 18.6667 41.1319 18.8264 40.8125 19.1459C40.4931 19.4653 40.3333 19.8612 40.3333 20.3334C40.3333 20.8056 40.4931 21.2014 40.8125 21.5209C41.1319 21.8403 41.5278 22 42 22ZM22 33.6667C22.4722 33.6667 22.8681 33.507 23.1875 33.1875C23.5069 32.8681 23.6667 32.4723 23.6667 32C23.6667 31.5278 23.5069 31.132 23.1875 30.8125C22.8681 30.4931 22.4722 30.3334 22 30.3334C21.5278 30.3334 21.1319 30.4931 20.8125 30.8125C20.4931 31.132 20.3333 31.5278 20.3333 32C20.3333 32.4723 20.4931 32.8681 20.8125 33.1875C21.1319 33.507 21.5278 33.6667 22 33.6667ZM42 45.3334C42.4722 45.3334 42.8681 45.1737 43.1875 44.8542C43.5069 44.5348 43.6667 44.1389 43.6667 43.6667C43.6667 43.1945 43.5069 42.7987 43.1875 42.4792C42.8681 42.1598 42.4722 42 42 42C41.5278 42 41.1319 42.1598 40.8125 42.4792C40.4931 42.7987 40.3333 43.1945 40.3333 43.6667C40.3333 44.1389 40.4931 44.5348 40.8125 44.8542C41.1319 45.1737 41.5278 45.3334 42 45.3334Z" fill="#CA8A04"/>
</svg>
