<svg width="64" height="64" viewBox="0 0 64 64" fill="none" xmlns="http://www.w3.org/2000/svg">
<rect x="1" y="1" width="62" height="62" stroke="#CA8A04" stroke-width="2"/>
<path d="M32 32C32.9166 32 33.7013 31.6737 34.3541 31.0209C35.0069 30.3681 35.3333 29.5834 35.3333 28.6667C35.3333 27.75 35.0069 26.9653 34.3541 26.3125C33.7013 25.6598 32.9166 25.3334 32 25.3334C31.0833 25.3334 30.2986 25.6598 29.6458 26.3125C28.993 26.9653 28.6666 27.75 28.6666 28.6667C28.6666 29.5834 28.993 30.3681 29.6458 31.0209C30.2986 31.6737 31.0833 32 32 32ZM32 44.25C35.3888 41.1389 37.9027 38.3125 39.5416 35.7709C41.1805 33.2292 42 30.9723 42 29C42 25.9723 41.0347 23.4931 39.1041 21.5625C37.1736 19.632 34.8055 18.6667 32 18.6667C29.1944 18.6667 26.8263 19.632 24.8958 21.5625C22.9652 23.4931 22 25.9723 22 29C22 30.9723 22.8194 33.2292 24.4583 35.7709C26.0972 38.3125 28.6111 41.1389 32 44.25ZM32 48.6667C27.5277 44.8612 24.1875 41.3264 21.9791 38.0625C19.7708 34.7987 18.6666 31.7778 18.6666 29C18.6666 24.8334 20.0069 21.5139 22.6875 19.0417C25.368 16.5695 28.4722 15.3334 32 15.3334C35.5277 15.3334 38.6319 16.5695 41.3125 19.0417C43.993 21.5139 45.3333 24.8334 45.3333 29C45.3333 31.7778 44.2291 34.7987 42.0208 38.0625C39.8125 41.3264 36.4722 44.8612 32 48.6667Z" fill="#CA8A04"/>
</svg>
