<svg width="100" height="100" viewBox="0 0 100 100" fill="none" xmlns="http://www.w3.org/2000/svg">
<path d="M16.6665 81.25V18.75C16.6665 15.9874 17.764 13.3378 19.7175 11.3843C21.671 9.43084 24.3205 8.33337 27.0832 8.33337H83.3332V91.6667H27.0832C24.3205 91.6667 21.671 90.5692 19.7175 88.6157C17.764 86.6622 16.6665 84.0127 16.6665 81.25ZM16.6665 81.25C16.6665 78.4874 17.764 75.8379 19.7175 73.8844C21.671 71.9308 24.3205 70.8334 27.0832 70.8334H83.3332" stroke="#CA8A04" stroke-width="10" stroke-linecap="round" stroke-linejoin="round"/>
<path d="M66.6663 34.1667C66.6663 29.1667 62.4997 25 57.4997 25C54.1663 25 51.6663 26.25 49.9997 28.75C48.333 26.25 45.833 25 42.4997 25C37.4997 25 33.333 29.1667 33.333 34.1667C33.333 36.6667 34.583 39.1667 36.2497 40.8333C41.6663 46.25 49.9997 54.1667 49.9997 54.1667C49.9997 54.1667 58.333 46.25 63.7497 41.25C65.4163 39.5833 66.6663 37.0833 66.6663 34.1667Z" stroke="#CA8A04" stroke-width="10" stroke-linecap="round" stroke-linejoin="round"/>
</svg>
