<svg width="43" height="48" viewBox="0 0 43 48" fill="none" xmlns="http://www.w3.org/2000/svg">
<path d="M40.9314 19.1703C40.6159 8.54598 31.8759 0 21.1765 0C10.4771 0 1.73704 8.54598 1.42146 19.1703L0 20.5917V30.2318L1.41176 31.6436V38.2118C1.41176 42.0521 4.53609 45.1765 8.37647 45.1765H10.1252C10.708 46.8197 12.2772 48 14.1176 48H16.9412C18.7829 48 20.3529 46.818 20.9348 45.1731C21.0154 45.1745 21.0963 45.1765 21.1765 45.1765C27.9942 45.1765 33.6986 40.3185 35.0103 33.8824H38.7024L42.3529 30.2318V20.5917L40.9314 19.1703ZM21.1765 2.82353C29.5559 2.82353 36.5328 8.9392 37.881 16.9412H35.0103C33.6986 10.505 27.9942 5.64706 21.1765 5.64706C14.3588 5.64706 8.65431 10.505 7.34268 16.9412H4.47191C5.82014 8.9392 12.7971 2.82353 21.1765 2.82353ZM32.1132 16.9412C27.5496 16.9275 24.326 17.2055 21.6683 13.3205L20.3778 11.4341L19.2687 13.4326C17.6527 16.3445 15.4764 16.9412 12.7059 16.9412H10.2397C11.4967 12.0755 15.9235 8.47059 21.1765 8.47059C26.4295 8.47059 30.8563 12.0755 32.1132 16.9412ZM7.05882 31.0588H4.82005L2.82353 29.0623V21.7612L4.82005 19.7647H7.05882V31.0588ZM4.23529 38.2118V33.8824H7.33995C7.87144 36.5153 9.14306 38.9321 11.0269 40.8733C10.632 41.2952 10.3223 41.7974 10.1252 42.3529H8.37647C6.09299 42.3529 4.23529 40.4952 4.23529 38.2118ZM16.9412 45.1765H14.1176C13.3391 45.1765 12.7059 44.5432 12.7059 43.7647C12.7059 42.9863 13.3391 42.3529 14.1176 42.3529H16.9412C17.7196 42.3529 18.3529 42.9863 18.3529 43.7647C18.3529 44.5432 17.7196 45.1765 16.9412 45.1765ZM32.4706 31.0588C32.4706 37.2864 27.404 42.3529 21.1765 42.3529C21.0955 42.3529 21.0139 42.3513 20.9324 42.3495C20.3487 40.708 18.7803 39.5294 16.9412 39.5294C14.0424 39.5358 14.0886 39.5149 13.7272 39.5481C11.2762 37.3998 9.88235 34.3399 9.88235 31.0588V19.7647H12.7059C15.2044 19.7647 18.2472 19.3528 20.6026 16.4861C23.7104 19.7429 27.5082 19.7647 30.9175 19.7647H32.4706V31.0588ZM39.5294 29.0623L37.5329 31.0588H35.2941V19.7647H37.5329L39.5294 21.7612V29.0623Z" fill="#262626"/>
</svg>
