<svg width="52" height="48" viewBox="0 0 52 48" fill="none" xmlns="http://www.w3.org/2000/svg">
<path d="M47.4658 24.9449V1.51364C47.4658 0.677706 46.7881 0 45.9522 0H5.39862C4.56269 0 3.88498 0.677706 3.88498 1.51364V26.8129C3.15481 26.9192 2.44097 27.2027 1.80949 27.6715C-0.18125 29.0831 -0.652092 32.2422 1.01543 34.1904L7.83316 42.4556C12.0534 47.3948 16.5365 48 23.2011 48C28.9203 48 31.4773 48.0252 36.4617 46.8894L41.3152 45.7286C42.1022 46.8276 43.3516 47.5395 44.7561 47.5395H47.147C49.5226 47.5395 51.4554 45.5035 51.4554 43.0008V29.47C51.4555 27.0804 49.693 25.1175 47.4658 24.9449ZM40.6623 28.0586L38.6456 27.0343C35.3296 25.3605 31.4957 25.2985 28.1274 26.8645C27.2084 27.226 25.2041 28.4387 24.1644 28.3982H17.1661C14.8448 28.3982 12.9562 30.2867 12.9562 32.6081V33.7119C12.9432 33.6982 12.9296 33.6852 12.9168 33.6713L7.91923 28.2467C7.61681 27.9184 7.27704 27.6438 6.91236 27.4234V12.4062H19.2993V17.9548C19.2993 18.7907 19.977 19.4684 20.8129 19.4684H30.364C31.2 19.4684 31.8777 18.7907 31.8777 17.9548V12.4062H44.4386V24.9448C42.6701 25.0815 41.1954 26.3467 40.6623 28.0586ZM22.3264 12.4062H28.8503V16.4411H22.3264V12.4062ZM44.4385 9.3789H31.8777V3.02727H44.4386V9.3789H44.4385ZM28.8504 3.02727V9.379H22.3265V3.02727H28.8504ZM19.2992 3.02727V9.379H6.91226V3.02727H19.2992ZM35.7591 43.9447C31.1547 44.9993 28.3816 44.9566 23.2554 44.9566C16.999 44.9566 13.9761 44.8555 10.1686 40.5291L3.35087 32.264C2.16499 30.7198 4.31294 28.8968 5.69277 30.2977L10.6903 35.7223C12.0111 37.116 13.6732 37.883 15.7217 37.9281H29.5774C30.4133 37.9281 31.091 37.2504 31.091 36.4145C31.091 35.5785 30.4133 34.9008 29.5774 34.9008H15.9834V32.6079C15.9834 31.9558 16.5139 31.4252 17.166 31.4252H24.1643C25.7409 31.5381 28.0165 30.2217 29.4036 29.6095C31.9263 28.4365 34.7978 28.4829 37.278 29.7348L40.448 31.3449V42.8231L35.7591 43.9447ZM48.4282 43.0007C48.4282 43.8341 47.8535 44.5121 47.1471 44.5121H44.7562C44.0498 44.5121 43.4753 43.8341 43.4753 43.0007V29.47C43.4753 28.6366 44.0499 27.9585 44.7562 27.9585H47.1471C47.8535 27.9585 48.4282 28.6365 48.4282 29.47V43.0007Z" fill="#262626"/>
</svg>
