<svg width="50" height="48" viewBox="0 0 50 48" fill="none" xmlns="http://www.w3.org/2000/svg">
<path d="M46.8942 16.7835C46.2404 14.759 46.5191 11.72 44.8198 9.37348C43.1071 7.00851 40.1283 6.33632 38.4462 5.10613C36.7819 3.8889 35.2335 1.2401 32.4339 0.326548C29.7133 -0.561258 26.9313 0.643483 24.7742 0.643483C22.6174 0.643483 19.8355 -0.561548 17.1144 0.326451C14.3153 1.23981 12.7657 3.88919 11.1024 5.10583C9.42222 6.33458 6.44119 7.00861 4.72877 9.37319C3.03087 11.7177 3.30677 14.7637 2.65413 16.7834C2.03303 18.7056 0 21.0126 0 24.0002C0 26.9897 2.03071 29.2878 2.65413 31.2169C3.30793 33.2415 3.02922 36.2805 4.72858 38.6269C6.44119 40.992 9.4199 41.6641 11.1021 42.8944C12.7662 44.1114 14.3148 46.7604 17.1144 47.6739C19.8332 48.5611 22.6196 47.3569 24.7742 47.3569C26.9258 47.3569 29.7187 48.5598 32.4339 47.674C35.2331 46.7606 36.7818 44.1118 38.4459 42.8946C40.1261 41.6658 43.1072 40.9918 44.8196 38.6272C46.5176 36.2826 46.2415 33.2369 46.8942 31.217C47.5153 29.2947 49.5483 26.9877 49.5483 24.0002C49.5483 21.011 47.5181 18.7135 46.8942 16.7835ZM43.2109 30.0267C42.4488 32.3856 42.6484 35.0255 41.6846 36.3565C40.7077 37.7053 38.1414 38.3213 36.1611 39.7698C34.2025 41.2022 32.8297 43.4728 31.2332 43.9937C29.7227 44.4867 27.2612 43.4858 24.7743 43.4858C22.2692 43.4858 19.833 44.4888 18.3153 43.9937C16.7189 43.4728 15.3481 41.2037 13.3873 39.7697C11.4188 38.33 8.8378 37.7013 7.86377 36.3563C6.90299 35.0297 7.09509 32.3716 6.33764 30.0268C5.59519 27.7295 3.87096 25.7403 3.87096 24.0002C3.87096 22.2584 5.59364 20.276 6.33745 17.9737C7.09954 15.6149 6.8999 12.9748 7.86377 11.6439C8.84003 10.296 11.4083 9.67793 13.3873 8.23057C15.3521 6.79358 16.7163 4.52838 18.3151 4.00667C19.8243 3.51429 22.2939 4.51464 24.7741 4.51464C27.2837 4.51464 29.7138 3.5109 31.2331 4.00667C32.8293 4.52751 34.2012 6.79745 36.1611 8.23067C38.1294 9.67038 40.7105 10.2991 41.6846 11.644C42.6455 12.9709 42.4524 15.6263 43.2107 17.9735C43.9532 20.2708 45.6774 22.2601 45.6774 24.0002C45.6774 25.742 43.9547 27.7244 43.2109 30.0267ZM33.6912 17.7878C34.4471 18.5437 34.4471 19.7691 33.6912 20.525L24.0036 30.2126C23.2477 30.9685 22.0221 30.9684 21.2663 30.2126L15.8572 24.8035C15.1013 24.0476 15.1012 22.8222 15.8571 22.0664C16.613 21.3106 17.8387 21.3105 18.5943 22.0664L22.6349 26.1069L30.9539 17.7879C31.7098 17.032 32.9353 17.032 33.6912 17.7878Z" fill="#262626"/>
</svg>
